<?xml version="1.0" encoding="UTF-8" standalone="no"?>
<svg
   width="8in"
   height="6in"
   viewBox="0 0 356.79744 267.59808"
   version="1.1"
   id="svg8"
   inkscape:version="1.3.2 (091e20ef0f, 2023-11-25, custom)"
   sodipodi:docname="nace_visual.svg"
   xml:space="preserve"
   xmlns:inkscape="http://www.inkscape.org/namespaces/inkscape"
   xmlns:sodipodi="http://sodipodi.sourceforge.net/DTD/sodipodi-0.dtd"
   xmlns="http://www.w3.org/2000/svg"
   xmlns:svg="http://www.w3.org/2000/svg"
   xmlns:rdf="http://www.w3.org/1999/02/22-rdf-syntax-ns#"
   xmlns:cc="http://creativecommons.org/ns#"
   xmlns:dc="http://purl.org/dc/elements/1.1/"><defs
     id="defs2"><marker
       style="overflow:visible"
       id="ArrowWideHeavy"
       refX="0"
       refY="0"
       orient="auto-start-reverse"
       inkscape:stockid="Wide, heavy arrow"
       markerWidth="1"
       markerHeight="1"
       viewBox="0 0 1 1"
       inkscape:isstock="true"
       inkscape:collect="always"
       preserveAspectRatio="xMidYMid"><path
         style="fill:context-stroke;fill-rule:evenodd;stroke:none"
         d="m 1,0 -3,3 h -2 l 3,-3 -3,-3 h 2 z"
         id="path3" /></marker><rect
       x="12.64503"
       y="24.139959"
       width="284.06589"
       height="551.07809"
       id="rect1" /><rect
       x="12.64503"
       y="24.139959"
       width="443.49186"
       height="178.00102"
       id="rect2" /><rect
       x="12.64503"
       y="24.139959"
       width="397.63689"
       height="87.991892"
       id="rect3" /><rect
       x="12.64503"
       y="24.139959"
       width="397.63689"
       height="87.991892"
       id="rect4" /><rect
       x="12.64503"
       y="24.139959"
       width="396.84278"
       height="123.21907"
       id="rect5" /><rect
       x="12.64503"
       y="24.139959"
       width="396.84278"
       height="123.21907"
       id="rect6" /><rect
       x="12.64503"
       y="24.139959"
       width="396.84278"
       height="123.21907"
       id="rect7" /><rect
       x="12.64503"
       y="24.139959"
       width="397.63689"
       height="87.991892"
       id="rect8" /><rect
       x="12.64503"
       y="24.139959"
       width="397.63689"
       height="87.991892"
       id="rect9" /><rect
       x="12.64503"
       y="24.139959"
       width="396.84278"
       height="123.21907"
       id="rect10" /><rect
       x="12.64503"
       y="24.139959"
       width="232.12917"
       height="73.817788"
       id="rect98" /><rect
       x="12.64503"
       y="24.139959"
       width="232.12917"
       height="73.817788"
       id="rect99" /><rect
       x="12.64503"
       y="24.139959"
       width="232.12917"
       height="73.817788"
       id="rect100" /><rect
       x="12.64503"
       y="24.139959"
       width="232.12917"
       height="73.817788"
       id="rect101" /><rect
       x="12.64503"
       y="24.139959"
       width="232.12917"
       height="73.817788"
       id="rect102" /><rect
       x="12.64503"
       y="24.139959"
       width="232.12917"
       height="73.817788"
       id="rect103" /><rect
       x="12.64503"
       y="24.139959"
       width="232.12917"
       height="73.817788"
       id="rect104" /><rect
       x="12.64503"
       y="24.139959"
       width="232.12917"
       height="73.817788"
       id="rect105" /></defs><sodipodi:namedview
     id="base"
     pagecolor="#ffffff"
     bordercolor="#666666"
     borderopacity="1.0"
     inkscape:pageopacity="0.0"
     inkscape:pageshadow="2"
     inkscape:zoom="1.1901042"
     inkscape:cx="380.63895"
     inkscape:cy="276.86652"
     inkscape:document-units="px"
     inkscape:current-layer="layer1"
     inkscape:document-rotation="0"
     showgrid="false"
     units="in"
     objecttolerance="6.8"
     guidetolerance="5.6"
     scale-x="0.46458"
     inkscape:window-width="1070"
     inkscape:window-height="1311"
     inkscape:window-x="0"
     inkscape:window-y="0"
     inkscape:window-maximized="0"
     inkscape:showpageshadow="2"
     inkscape:pagecheckerboard="0"
     inkscape:deskcolor="#d1d1d1" /><metadata
     id="metadata5"><rdf:RDF><cc:Work
         rdf:about=""><dc:format>image/svg+xml</dc:format><dc:type
           rdf:resource="http://purl.org/dc/dcmitype/StillImage" /></cc:Work></rdf:RDF></metadata><g
     inkscape:label="Layer 1"
     inkscape:groupmode="layer"
     id="layer1"><text
       xml:space="preserve"
       transform="matrix(0.46458,0,0,0.46458,165.81312,193.56542)"
       id="text2"
       style="font-style:normal;font-weight:normal;font-size:18.6667px;line-height:1.25;font-family:sans-serif;white-space:pre;shape-inside:url(#rect2);shape-padding:5.41582;display:inline;fill:#000000;fill-opacity:1;stroke:none"><tspan
         x="18.060547"
         y="46.541008"
         id="tspan1">Continous learning and seeking new </tspan><tspan
         x="18.060547"
         y="69.874382"
         id="tspan2">opportunities</tspan></text><text
       xml:space="preserve"
       transform="matrix(0.46458,0,0,0.46458,168.47338,57.31202)"
       id="text3"
       style="font-style:normal;font-weight:normal;font-size:18.6667px;line-height:1.25;font-family:sans-serif;white-space:pre;shape-inside:url(#rect3);shape-padding:5.41582;display:inline;fill:#000000;fill-opacity:1;stroke:none"><tspan
         x="18.060547"
         y="46.541008"
         id="tspan3">Clearly and effectively exchange </tspan><tspan
         x="18.060547"
         y="69.874382"
         id="tspan4">information and ideas</tspan></text><text
       xml:space="preserve"
       transform="matrix(0.46458,0,0,0.46458,164.94097,-0.81843)"
       id="text4"
       style="font-style:normal;font-weight:normal;font-size:18.6667px;line-height:1.25;font-family:sans-serif;white-space:pre;shape-inside:url(#rect4);shape-padding:5.41582;display:inline;fill:#000000;fill-opacity:1;stroke:none"><tspan
         x="18.060547"
         y="46.541008"
         id="tspan5">Problem solving and analyzing information</tspan></text><text
       xml:space="preserve"
       transform="matrix(0.46458,0,0,0.46458,174.70139,193.2012)"
       id="text5"
       style="font-style:normal;font-weight:normal;font-size:18.6667px;line-height:1.25;font-family:sans-serif;white-space:pre;shape-inside:url(#rect5);shape-padding:5.41582;display:inline;fill:#000000;fill-opacity:1;stroke:none" /><text
       xml:space="preserve"
       transform="matrix(0.46458,0,0,0.46458,162.0079,133.22044)"
       id="text6"
       style="font-style:normal;font-weight:normal;font-size:18.6667px;line-height:1.25;font-family:sans-serif;white-space:pre;shape-inside:url(#rect6);shape-padding:5.41582;display:inline;fill:#000000;fill-opacity:1;stroke:none"><tspan
         x="18.060547"
         y="46.541008"
         id="tspan6">Collaborate with others to achieve goals</tspan></text><text
       xml:space="preserve"
       transform="matrix(0.46458,0,0,0.46458,165.37797,28.32128)"
       id="text7"
       style="font-style:normal;font-weight:normal;font-size:18.6667px;line-height:1.25;font-family:sans-serif;white-space:pre;shape-inside:url(#rect7);shape-padding:5.41582;display:inline;fill:#000000;fill-opacity:1;stroke:none"><tspan
         x="18.060547"
         y="46.541008"
         id="tspan7">Act with integrity and accountability</tspan></text><text
       xml:space="preserve"
       transform="matrix(0.46458,0,0,0.46458,163.77905,85.807364)"
       id="text8"
       style="font-style:normal;font-weight:normal;font-size:18.6667px;line-height:1.25;font-family:sans-serif;white-space:pre;shape-inside:url(#rect8);shape-padding:5.41582;display:inline;fill:#000000;fill-opacity:1;stroke:none"><tspan
         x="18.060547"
         y="46.541008"
         id="tspan8">Engage in antioppressive practices and </tspan><tspan
         x="18.060547"
         y="69.874382"
         id="tspan9">actively include different cultures and </tspan><tspan
         x="18.060547"
         y="93.207756"
         id="tspan10">backgrounds</tspan></text><text
       xml:space="preserve"
       transform="matrix(0.46458,0,0,0.46458,163.28996,234.65106)"
       id="text9"
       style="font-style:normal;font-weight:normal;font-size:18.6667px;line-height:1.25;font-family:sans-serif;white-space:pre;shape-inside:url(#rect9);shape-padding:5.41582;display:inline;fill:#000000;fill-opacity:1;stroke:none"><tspan
         x="18.060547"
         y="46.541008"
         id="tspan11">Use team strengths to achieve goals</tspan></text><text
       xml:space="preserve"
       transform="matrix(0.46458,0,0,0.46458,163.10762,158.33603)"
       id="text10"
       style="font-style:normal;font-weight:normal;font-size:18.6667px;line-height:1.25;font-family:sans-serif;white-space:pre;shape-inside:url(#rect10);shape-padding:5.41582;display:inline;fill:#000000;fill-opacity:1;stroke:none"><tspan
         x="18.060547"
         y="46.541008"
         id="tspan12">Leverage technologies ethically to </tspan><tspan
         x="18.060547"
         y="69.874382"
         id="tspan13">accomplish goals</tspan></text><g
       id="g109"
       transform="translate(0,191.40696)"><rect
         style="fill:#ffffff;fill-opacity:1;stroke:#000000;stroke-width:0.46458;stroke-dasharray:none"
         id="rect11"
         width="31.08886"
         height="2.5428967"
         x="28.512449"
         y="15.861432"
         ry="0" /><rect
         style="fill:#ffffff;fill-opacity:1;stroke:#000000;stroke-width:0.46458;stroke-dasharray:none"
         id="rect12"
         width="20.557127"
         height="7.1879792"
         x="34.302811"
         y="18.551352"
         ry="0" /><path
         style="fill:none;stroke:#000000;stroke-width:0.46458;stroke-linecap:butt;stroke-linejoin:miter;stroke-dasharray:none;stroke-opacity:1"
         d="m 59.51541,18.924005 v 7.85865"
         id="path12" /><rect
         style="fill:#ffffff;fill-opacity:1;stroke:#000000;stroke-width:0.46458;stroke-dasharray:none"
         id="rect13"
         width="2.0290048"
         height="2.0290048"
         x="58.522881"
         y="24.169043"
         ry="1.0145024" /><rect
         style="fill:#ffffff;fill-opacity:1;stroke:#000000;stroke-width:0.46458;stroke-dasharray:none"
         id="rect14"
         width="2.0290031"
         height="4.0510459"
         x="58.546772"
         y="26.787617"
         ry="1.0145024" /><text
         xml:space="preserve"
         transform="matrix(0.46458,0,0,0.46458,51.164572,0.97978288)"
         id="text97"
         style="font-style:normal;font-weight:normal;font-size:26.6667px;line-height:1.25;font-family:sans-serif;white-space:pre;shape-inside:url(#rect98);display:inline;fill:#000000;fill-opacity:1;stroke:none"
         x="251.30698"
         y="0"><tspan
           x="47.013229"
           y="48.403994"
           id="tspan15"><tspan
             style="text-align:end;text-anchor:end"
             id="tspan14">Career and Self 
</tspan></tspan><tspan
           x="79.786708"
           y="81.737368"
           id="tspan17"><tspan
             style="text-align:end;text-anchor:end"
             id="tspan16">development
</tspan></tspan></text></g><g
       id="g110"
       transform="translate(0,14.86656)"><g
         id="g31"
         transform="matrix(0.85111392,0,0,0.85111392,18.179303,-3.7000466)"><path
           style="fill:#ffffff;fill-opacity:1;stroke:#000000;stroke-width:0.46458px;stroke-linecap:butt;stroke-linejoin:miter;stroke-opacity:1"
           d="m 48.99376,92.175178 -4.529236,-5.496683 h 6.847431 V 68.083338 H 26.676388 V 86.80218 h 13.238694 l 9.659445,5.576884"
           id="path15" /><path
           style="fill:none;stroke:#000000;stroke-width:0.46458px;stroke-linecap:butt;stroke-linejoin:miter;stroke-opacity:1"
           d="m 29.373601,72.792304 c 0.565159,-0.156341 1.116622,-0.562695 1.695478,-0.469026 0.359281,0.05814 0.391014,0.633473 0.680886,0.853554 0.399453,0.303283 1.215598,0.289745 1.659965,0.276764 0.817847,-0.02388 1.680254,-0.08583 2.46025,-0.360649 0.127931,-0.04506 0.246964,-0.112256 0.370446,-0.168387"
           id="path24" /><path
           style="fill:none;stroke:#000000;stroke-width:0.46458px;stroke-linecap:butt;stroke-linejoin:miter;stroke-opacity:1"
           d="m 42.05632,73.152953 c 0.911725,-0.07205 1.824822,-0.303836 2.735176,-0.216146 0.244533,0.02355 0.31096,0.389443 0.513113,0.529036 0.149313,0.103104 0.336576,0.140744 0.513726,0.180015 0.708753,0.157135 1.398231,-0.197669 2.030408,-0.45678"
           id="path25" /><path
           style="fill:none;stroke:#000000;stroke-width:0.46458px;stroke-linecap:butt;stroke-linejoin:miter;stroke-opacity:1"
           d="m 28.764355,78.214282 c 1.250996,-0.585445 0.952556,0.693609 2.065925,0.853559 0.427188,0.06137 0.596599,-0.05778 0.931931,-0.252271 0.225061,-0.130533 0.663806,-0.471767 0.955199,-0.396775 0.09897,0.02546 0.154418,0.134617 0.2388,0.192262 0.138915,0.0949 0.277648,0.192819 0.42984,0.264518 0.46424,0.218715 1.54771,0.494949 2.042044,0.312276 0.250286,-0.09249 0.780068,-0.49926 0.955812,-0.625166"
           id="path26" /><path
           style="fill:none;stroke:#000000;stroke-width:0.46458px;stroke-linecap:butt;stroke-linejoin:miter;stroke-opacity:1"
           d="m 38.318184,77.625246 c 0.740484,-0.03206 1.480338,-0.08643 2.221451,-0.09614 0.332437,-0.0042 0.514256,-0.0057 0.740279,0.192267 0.20207,0.177019 0.117019,0.211737 0.358812,0.336769 0.26743,0.138287 0.449452,0.111504 0.76416,0.120011 0.793038,0.02142 1.608197,0.0033 2.38861,-0.144503 0.70227,-0.132926 1.401957,-0.373625 2.125319,-0.288398"
           id="path27" /><path
           style="fill:none;stroke:#000000;stroke-width:0.46458px;stroke-linecap:butt;stroke-linejoin:miter;stroke-opacity:1"
           d="m 43.656891,82.253675 c 0.386161,0.01593 0.774986,-2.32e-4 1.158485,0.04776 0.323968,0.04056 0.633774,0.159444 0.955199,0.216759 0.319819,0.05703 0.410754,0.0023 0.716401,0.02388 0.332017,0.0236 0.661009,0.07898 0.991325,0.12001 0.470838,0.05848 0.966824,0.144624 1.433411,0.19288 0.162403,0.01682 0.327185,0.04381 0.48923,0.02388 0.200434,-0.02467 0.390248,-0.104094 0.585367,-0.156141"
           id="path28" /><path
           style="fill:none;stroke:#000000;stroke-width:0.46458px;stroke-linecap:butt;stroke-linejoin:miter;stroke-opacity:1"
           d="m 29.720167,84.309191 c 0.565159,-0.276355 1.069176,-0.769712 1.695478,-0.829066 0.191466,-0.01816 0.694062,0.824035 0.895806,0.985815 0.114082,0.09148 0.252497,0.156643 0.394325,0.192267 0.213467,0.05361 0.436514,0.06186 0.656394,0.07164 0.230848,0.01027 0.464141,0.01933 0.693131,-0.01161 0.23025,-0.03113 1.139109,-0.29997 1.385039,-0.360648 0.508051,-0.125353 0.997267,-0.171012 1.516685,-0.21676"
           id="path29" /><path
           style="fill:none;stroke:#000000;stroke-width:0.46458px;stroke-linecap:butt;stroke-linejoin:miter;stroke-opacity:1"
           d="m 38.676996,82.433691 c 1.176653,-0.203774 1.122161,-0.386614 1.934279,-0.14389 0.09922,0.02964 0.188817,0.0858 0.28656,0.12001 0.09388,0.03285 0.417238,0.137126 0.525971,0.06001 0.186621,-0.132363 0.310236,-0.33636 0.465354,-0.504543"
           id="path30" /><path
           style="fill:none;stroke:#000000;stroke-width:0.46458px;stroke-linecap:butt;stroke-linejoin:miter;stroke-opacity:1"
           d="m 38.222664,75.052328 c 0.613124,0.07613 1.231918,0.11562 1.839371,0.228392 0.154405,0.02866 0.275678,0.162933 0.42984,0.192875 0.351561,0.06829 0.654212,-0.483981 0.811919,-0.733544"
           id="path31" /></g><path
         style="fill:#ffffff;fill-opacity:1;stroke:#000000;stroke-width:0.395411px;stroke-linecap:butt;stroke-linejoin:miter;stroke-opacity:1"
         d="M 30.962424,69.678999 34.81732,65.000695 H 28.989376 V 49.174098 H 49.95705 V 65.105965 H 38.689413 l -8.221288,4.746564"
         id="path14" /><path
         style="fill:none;stroke:#000000;stroke-width:0.395411px;stroke-linecap:butt;stroke-linejoin:miter;stroke-opacity:1"
         d="m 30.438154,53.702833 c 0.460864,-0.242157 0.895283,-0.543266 1.382593,-0.726472 0.122006,-0.04588 0.293169,-0.02986 0.386167,0.06149 0.08046,0.07902 0.009,0.225499 0.02032,0.337701 0.03115,0.308297 0.08395,0.446837 0.426816,0.490917 0.117724,0.01514 0.241505,0.02159 0.355941,-0.0099 0.275062,-0.07571 0.780862,-0.548672 1.036554,-0.51176 0.339604,0.04902 0.343637,0.127216 0.670711,0.22513 0.431594,0.129213 0.950016,0.157998 1.392494,0.08183 0.225378,-0.03879 0.43977,-0.125819 0.66081,-0.184486 0.331402,-0.08796 0.664779,-0.16833 0.996426,-0.25536 0.213831,-0.05611 0.422551,-0.134009 0.639963,-0.17406 0.455476,-0.08391 0.175192,0.02685 0.559187,0.183961 0.108269,0.04431 0.230346,0.041 0.345519,0.0615"
         id="path18" /><path
         style="fill:none;stroke:#000000;stroke-width:0.395411px;stroke-linecap:butt;stroke-linejoin:miter;stroke-opacity:1"
         d="m 41.629182,53.69241 c 2.446895,0.146566 0.189898,-0.238417 1.351846,0.450269 0.120444,0.07138 0.279811,0.07945 0.416914,0.05108 0.220235,-0.0456 0.412051,-0.180506 0.62016,-0.265784 0.238781,-0.09785 0.640612,-0.257744 0.904184,-0.306953 0.272123,-0.05081 0.408993,-0.04231 0.66081,0.01044 0.0756,0.01581 0.146585,0.05463 0.22357,0.06097 0.131792,0.01084 0.264394,-0.0066 0.396591,-0.0099"
         id="path19" /><path
         style="fill:none;stroke:#000000;stroke-width:0.395411px;stroke-linecap:butt;stroke-linejoin:miter;stroke-opacity:1"
         d="m 32.023992,57.621829 c 0.918853,0.04542 2.170216,0.519989 3.191482,0.255883 0.137054,-0.03543 0.273422,-0.07469 0.406491,-0.122989 0.121486,-0.0441 0.2267,-0.15374 0.355941,-0.15374 0.224037,0 0.37282,0.270568 0.477888,0.409618"
         id="path20" /><path
         style="fill:none;stroke:#000000;stroke-width:0.395411px;stroke-linecap:butt;stroke-linejoin:miter;stroke-opacity:1"
         d="m 40.938147,57.949107 c 0.270994,-0.0648 0.53436,-0.191944 0.812983,-0.194384 0.440711,-0.0039 0.328544,0.193826 0.477888,0.419519 0.156439,0.236412 0.30191,0.358396 0.599836,0.399194 0.659457,0.09031 0.964023,-0.297898 1.514442,-0.532088 0.162829,-0.06928 0.337816,-0.105662 0.508115,-0.153735 0.3893,-0.109897 0.650999,-0.02895 1.046977,-0.02032 0.599008,0.01309 0.570722,-0.05325 1.239799,-0.153739 0.141502,-0.02124 0.284892,-0.02708 0.427338,-0.04065"
         id="path21" /><path
         style="fill:none;stroke:#000000;stroke-width:0.395411px;stroke-linecap:butt;stroke-linejoin:miter;stroke-opacity:1"
         d="m 35.520343,62.031744 c 0.836955,-0.09207 1.670231,-0.324201 2.510867,-0.276207 0.188193,0.01076 0.21175,0.317816 0.35542,0.439843 0.08021,0.06813 0.190392,0.100763 0.294967,0.11257 0.667755,0.07539 1.315668,-0.193945 1.961583,-0.306953 2.22452,-0.389211 -0.728294,0.155767 1.168924,-0.09224 0.394087,-0.05152 0.778843,-0.158908 1.168924,-0.235032"
         id="path22" /><path
         style="fill:none;stroke:#000000;stroke-width:0.395411px;stroke-linecap:butt;stroke-linejoin:miter;stroke-opacity:1"
         d="m 45.623745,62.23655 c 0.396416,-0.0172 0.79993,-0.128227 1.189249,-0.05159 0.140236,0.0276 0.137744,0.271125 0.26422,0.337704 0.321262,0.16911 0.975814,-0.166831 1.260645,-0.276206 0.131068,-0.05034 0.264046,-0.09554 0.396068,-0.143316"
         id="path23" /><text
         xml:space="preserve"
         transform="matrix(0.46458,0,0,0.46458,51.162469,46.304266)"
         id="text98"
         style="font-style:normal;font-weight:normal;font-size:26.6667px;line-height:1.25;font-family:sans-serif;white-space:pre;shape-inside:url(#rect99);display:inline;fill:#000000;fill-opacity:1;stroke:none"
         x="251.30698"
         y="0"><tspan
           x="45.199923"
           y="48.403994"
           id="tspan19"><tspan
             style="text-align:end;text-anchor:end"
             id="tspan18">Communication</tspan></tspan></text></g><g
       id="g111"
       transform="translate(0,-78.04944)"><g
         id="g53"
         transform="translate(9.6624305,-2.1604665)"><path
           style="fill:none;stroke:#000000;stroke-width:0.46458px;stroke-linecap:butt;stroke-linejoin:miter;stroke-opacity:1"
           d="m 20.449379,87.347634 c -0.79564,0.400807 -1.958014,-0.399144 -2.669138,0.137505 -1.505862,1.136399 -1.954101,3.47299 -1.830355,5.355465 0.09195,1.398763 1.703038,2.37518 1.869251,3.767073 0.117478,0.983772 -0.858575,1.928697 -0.65706,2.898748 0.21499,1.034915 1.68457,1.517745 1.874725,2.557505 0.209907,1.14776 -1.407552,2.30545 -0.936306,3.37285 0.423916,0.9602 2.157622,0.59925 2.809525,1.42187 0.625741,0.78961 -0.02232,2.24804 0.712502,2.93729 1.449077,1.35921 5.87033,1.03184 5.87033,1.03184 l 0.398134,-25.485465 c 0,0 -3.494361,-1.43621 -5.108416,-0.827552 -1.144653,0.431647 -1.240653,2.2825 -2.333192,2.832871 z"
           id="path32"
           sodipodi:nodetypes="aaaaaaaaaccaa" /><path
           style="fill:none;stroke:#000000;stroke-width:0.46458px;stroke-linecap:butt;stroke-linejoin:miter;stroke-opacity:1"
           d="m 19.093061,103.61389 c -0.02738,-0.0976 -0.06135,-0.19359 -0.08213,-0.29281 -0.0068,-0.0324 7.89e-4,-0.0662 0,-0.0993 -0.0011,-0.0461 -0.0025,-0.0921 -0.0056,-0.1381 -0.01149,-0.16833 -0.0511,-0.33843 -0.03291,-0.50799 0.02867,-0.2672 0.02065,0.0297 0.08241,-0.34259 0.01981,-0.11943 -0.01759,-0.24982 0.04388,-0.36426 0.249212,-0.46392 -0.05511,0.11477 0.175517,-0.22108 0.02746,-0.04 0.03396,-0.0917 0.06019,-0.13248 0.04242,-0.0387 0.0696,-0.0571 0.09901,-0.10492 0.04372,-0.0711 0.01856,-0.0975 0.03291,-0.12151 0.0073,-0.0123 0.02422,-0.0162 0.03291,-0.0276 0.02905,-0.038 0.04219,-0.0908 0.06582,-0.13248 0.0039,-0.007 0.04318,-0.0745 0.05485,-0.0886 0.02989,-0.036 0.07057,-0.0613 0.08776,-0.10492"
           id="path33" /><path
           style="fill:none;stroke:#000000;stroke-width:0.46458px;stroke-linecap:butt;stroke-linejoin:miter;stroke-opacity:1"
           d="m 17.639423,95.865846 c -0.08244,0.244193 -0.118177,0.241317 -0.104353,0.436259 0.0055,0.07795 0.150773,0.300574 0.203081,0.353281 0.03976,0.04009 0.09614,0.0606 0.136982,0.09957 0.07234,0.06902 0.106225,0.171221 0.175798,0.243022 0.03287,0.03391 0.08139,0.04957 0.115042,0.0827 0.160068,0.157572 0.10697,0.139579 0.219396,0.298154 0.05227,0.07372 0.109625,0.143694 0.164547,0.215458 0.04934,0.06447 0.09214,0.134552 0.148233,0.193237 0.03802,0.03977 0.08901,0.06479 0.131637,0.09957 0.06346,0.05179 0.121869,0.109697 0.186487,0.160048 0.123796,0.09646 0.146844,0.101631 0.274244,0.165669 0.04762,0.02393 0.101066,0.0387 0.142889,0.07173 0.01334,0.01055 0.0073,0.03317 0.01097,0.04978"
           id="path34" /><path
           style="fill:none;stroke:#000000;stroke-width:0.46458px;stroke-linecap:butt;stroke-linejoin:miter;stroke-opacity:1"
           d="m 22.450661,90.288126 c -0.117011,-0.07182 -0.225962,-0.15883 -0.351033,-0.215458 -0.01557,-0.0071 -0.210309,-0.0056 -0.241617,-0.0056 -0.02533,0 -0.1952,-0.01236 -0.22474,0 -0.176349,0.07366 -0.262217,0.22271 -0.378598,0.364537 -0.02985,0.03638 -0.06752,0.06807 -0.08776,0.110542 -0.04454,0.09346 -0.06751,0.195774 -0.104354,0.292528 -0.03818,0.100279 -0.07503,0.201321 -0.120667,0.298432 -0.03674,0.07817 -0.08996,0.147932 -0.126012,0.226427 -0.114906,0.250213 0.0029,0.181934 -0.142889,0.242743"
           id="path35" /><path
           style="fill:none;stroke:#000000;stroke-width:0.46458px;stroke-linecap:butt;stroke-linejoin:miter;stroke-opacity:1"
           d="m 22.220296,105.20986 c 0.153406,0.32687 0.349542,0.64906 0.636247,0.87814 0.04614,0.0369 0.102385,0.0589 0.153577,0.0883 0.29823,0.17151 0.140104,0.0964 0.417133,0.20421 0.244481,0.0952 0.06407,0.034 0.340064,0.11054 0.15516,0.043 0.294382,0.0901 0.455387,0.0993 0.08818,0.005 0.175578,-0.0148 0.263275,-0.0219"
           id="path36" /><path
           style="fill:none;stroke:#000000;stroke-width:0.46458px;stroke-linecap:butt;stroke-linejoin:miter;stroke-opacity:1"
           d="m 22.768785,97.119492 c -0.07679,-0.250427 -0.197426,-0.491428 -0.230366,-0.751286 -0.02145,-0.169224 0.138944,-0.327543 0.214052,-0.458202 0.03361,-0.05846 0.04926,-0.1269 0.08776,-0.182268 0.04904,-0.07054 0.211658,-0.212295 0.279589,-0.270586 0.03186,-0.02732 0.230905,-0.19025 0.257931,-0.209832 0.08176,-0.05925 0.186249,-0.09399 0.257931,-0.165674"
           id="path37" /><path
           style="fill:none;stroke:#000000;stroke-width:0.46458px;stroke-linecap:butt;stroke-linejoin:miter;stroke-opacity:1"
           d="m 24.847982,100.81406 c -0.06511,0.40076 -0.152994,0.84413 -0.01632,1.2424 0.215617,0.62829 0.0013,0.0188 0.213771,0.41967 0.04591,0.0866 0.07172,0.18277 0.115323,0.27059 0.037,0.0745 0.09186,0.13958 0.126012,0.21546 0.06962,0.15466 0.0909,0.33776 0.120668,0.50263"
           id="path38" /><path
           style="fill:none;stroke:#000000;stroke-width:0.46458px;stroke-linecap:butt;stroke-linejoin:miter;stroke-opacity:1"
           d="m 27.645842,93.413672 c 0.0092,-0.108572 0.03357,-0.216922 0.02756,-0.325717 -0.0079,-0.142789 -0.03675,-0.04028 -0.07144,-0.08297 -0.02824,-0.03475 -0.04956,-0.0747 -0.07679,-0.110263 -0.05721,-0.07472 -0.122749,-0.148397 -0.203081,-0.198864 -0.219823,-0.138092 -0.596885,-0.176619 -0.8503,-0.209832 -0.0709,-0.0093 -0.290975,-0.02671 -0.351033,0.01658 -0.01801,0.01301 -0.01819,0.04051 -0.02728,0.06076"
           id="path39" /><path
           style="fill:none;stroke:#000000;stroke-width:0.46458px;stroke-linecap:butt;stroke-linejoin:miter;stroke-opacity:1"
           d="m 27.67875,99.841973 c -0.278137,0.02453 -0.453025,0.231797 -0.696722,0.325717 -0.215542,0.0831 -0.0169,-0.0108 -0.219395,0.0554 -0.05163,0.0169 -0.116786,0.0624 -0.175517,0.0661 -0.09949,0.006 -0.185116,-0.0482 -0.274245,-0.0827"
           id="path40" /><path
           style="fill:none;stroke:#000000;stroke-width:0.46458px;stroke-linecap:butt;stroke-linejoin:miter;stroke-opacity:1"
           d="m 21.737343,85.676877 c 0.04604,0.141507 0.534471,0.33801 0.669439,0.50236 0.07763,0.09453 0.08508,0.232466 0.126012,0.342316 0.03851,0.103365 0.04403,0.10008 0.08776,0.16567"
           id="path41" /><path
           style="fill:none;stroke:#000000;stroke-width:0.46458px;stroke-linecap:butt;stroke-linejoin:miter;stroke-opacity:1"
           d="m 25.078348,84.936838 c 0.10426,0.03122 0.212642,0.05103 0.312779,0.09366 0.01396,0.0059 0.005,0.0302 0.01097,0.04418 0.0161,0.03786 0.03841,0.07284 0.05485,0.110542 0.01462,0.03861 0.02925,0.07725 0.04388,0.115885 0.01097,0.01106 0.02558,0.01942 0.03291,0.03317 0.02056,0.03861 0.02819,0.08332 0.0495,0.121511 0.01204,0.02156 0.03641,0.03429 0.04922,0.05541 0.01016,0.01673 0.09963,0.19334 0.109698,0.237401 0.02445,0.107002 0.02527,0.248792 0.02194,0.358906 -6.97e-4,0.023 -0.02244,0.165382 0.01659,0.193238 0.03737,0.02667 0.08045,0.04427 0.120668,0.06638"
           id="path42" /></g><g
         id="g63"
         transform="matrix(-1,0,0,1,67.423063,-2.1604665)"><path
           style="fill:none;stroke:#000000;stroke-width:0.46458px;stroke-linecap:butt;stroke-linejoin:miter;stroke-opacity:1"
           d="m 20.449379,87.347634 c -0.79564,0.400807 -1.958014,-0.399144 -2.669138,0.137505 -1.505862,1.136399 -1.954101,3.47299 -1.830355,5.355465 0.09195,1.398763 1.703038,2.37518 1.869251,3.767073 0.117478,0.983772 -0.858575,1.928697 -0.65706,2.898748 0.21499,1.034915 1.68457,1.517745 1.874725,2.557505 0.209907,1.14776 -1.407552,2.30545 -0.936306,3.37285 0.423916,0.9602 2.157622,0.59925 2.809525,1.42187 0.625741,0.78961 -0.02232,2.24804 0.712502,2.93729 1.449077,1.35921 5.87033,1.03184 5.87033,1.03184 l 0.398134,-25.485465 c 0,0 -3.494361,-1.43621 -5.108416,-0.827552 -1.144653,0.431647 -1.240653,2.2825 -2.333192,2.832871 z"
           id="path53"
           sodipodi:nodetypes="aaaaaaaaaccaa" /><path
           style="fill:none;stroke:#000000;stroke-width:0.46458px;stroke-linecap:butt;stroke-linejoin:miter;stroke-opacity:1"
           d="m 19.093061,103.61389 c -0.02738,-0.0976 -0.06135,-0.19359 -0.08213,-0.29281 -0.0068,-0.0324 7.89e-4,-0.0662 0,-0.0993 -0.0011,-0.0461 -0.0025,-0.0921 -0.0056,-0.1381 -0.01149,-0.16833 -0.0511,-0.33843 -0.03291,-0.50799 0.02867,-0.2672 0.02065,0.0297 0.08241,-0.34259 0.01981,-0.11943 -0.01759,-0.24982 0.04388,-0.36426 0.249212,-0.46392 -0.05511,0.11477 0.175517,-0.22108 0.02746,-0.04 0.03396,-0.0917 0.06019,-0.13248 0.04242,-0.0387 0.0696,-0.0571 0.09901,-0.10492 0.04372,-0.0711 0.01856,-0.0975 0.03291,-0.12151 0.0073,-0.0123 0.02422,-0.0162 0.03291,-0.0276 0.02905,-0.038 0.04219,-0.0908 0.06582,-0.13248 0.0039,-0.007 0.04318,-0.0745 0.05485,-0.0886 0.02989,-0.036 0.07057,-0.0613 0.08776,-0.10492"
           id="path54" /><path
           style="fill:none;stroke:#000000;stroke-width:0.46458px;stroke-linecap:butt;stroke-linejoin:miter;stroke-opacity:1"
           d="m 17.639423,95.865846 c -0.08244,0.244193 -0.118177,0.241317 -0.104353,0.436259 0.0055,0.07795 0.150773,0.300574 0.203081,0.353281 0.03976,0.04009 0.09614,0.0606 0.136982,0.09957 0.07234,0.06902 0.106225,0.171221 0.175798,0.243022 0.03287,0.03391 0.08139,0.04957 0.115042,0.0827 0.160068,0.157572 0.10697,0.139579 0.219396,0.298154 0.05227,0.07372 0.109625,0.143694 0.164547,0.215458 0.04934,0.06447 0.09214,0.134552 0.148233,0.193237 0.03802,0.03977 0.08901,0.06479 0.131637,0.09957 0.06346,0.05179 0.121869,0.109697 0.186487,0.160048 0.123796,0.09646 0.146844,0.101631 0.274244,0.165669 0.04762,0.02393 0.101066,0.0387 0.142889,0.07173 0.01334,0.01055 0.0073,0.03317 0.01097,0.04978"
           id="path55" /><path
           style="fill:none;stroke:#000000;stroke-width:0.46458px;stroke-linecap:butt;stroke-linejoin:miter;stroke-opacity:1"
           d="m 22.450661,90.288126 c -0.117011,-0.07182 -0.225962,-0.15883 -0.351033,-0.215458 -0.01557,-0.0071 -0.210309,-0.0056 -0.241617,-0.0056 -0.02533,0 -0.1952,-0.01236 -0.22474,0 -0.176349,0.07366 -0.262217,0.22271 -0.378598,0.364537 -0.02985,0.03638 -0.06752,0.06807 -0.08776,0.110542 -0.04454,0.09346 -0.06751,0.195774 -0.104354,0.292528 -0.03818,0.100279 -0.07503,0.201321 -0.120667,0.298432 -0.03674,0.07817 -0.08996,0.147932 -0.126012,0.226427 -0.114906,0.250213 0.0029,0.181934 -0.142889,0.242743"
           id="path56" /><path
           style="fill:none;stroke:#000000;stroke-width:0.46458px;stroke-linecap:butt;stroke-linejoin:miter;stroke-opacity:1"
           d="m 22.220296,105.20986 c 0.153406,0.32687 0.349542,0.64906 0.636247,0.87814 0.04614,0.0369 0.102385,0.0589 0.153577,0.0883 0.29823,0.17151 0.140104,0.0964 0.417133,0.20421 0.244481,0.0952 0.06407,0.034 0.340064,0.11054 0.15516,0.043 0.294382,0.0901 0.455387,0.0993 0.08818,0.005 0.175578,-0.0148 0.263275,-0.0219"
           id="path57" /><path
           style="fill:none;stroke:#000000;stroke-width:0.46458px;stroke-linecap:butt;stroke-linejoin:miter;stroke-opacity:1"
           d="m 22.768785,97.119492 c -0.07679,-0.250427 -0.197426,-0.491428 -0.230366,-0.751286 -0.02145,-0.169224 0.138944,-0.327543 0.214052,-0.458202 0.03361,-0.05846 0.04926,-0.1269 0.08776,-0.182268 0.04904,-0.07054 0.211658,-0.212295 0.279589,-0.270586 0.03186,-0.02732 0.230905,-0.19025 0.257931,-0.209832 0.08176,-0.05925 0.186249,-0.09399 0.257931,-0.165674"
           id="path58" /><path
           style="fill:none;stroke:#000000;stroke-width:0.46458px;stroke-linecap:butt;stroke-linejoin:miter;stroke-opacity:1"
           d="m 24.847982,100.81406 c -0.06511,0.40076 -0.152994,0.84413 -0.01632,1.2424 0.215617,0.62829 0.0013,0.0188 0.213771,0.41967 0.04591,0.0866 0.07172,0.18277 0.115323,0.27059 0.037,0.0745 0.09186,0.13958 0.126012,0.21546 0.06962,0.15466 0.0909,0.33776 0.120668,0.50263"
           id="path59" /><path
           style="fill:none;stroke:#000000;stroke-width:0.46458px;stroke-linecap:butt;stroke-linejoin:miter;stroke-opacity:1"
           d="m 27.645842,93.413672 c 0.0092,-0.108572 0.03357,-0.216922 0.02756,-0.325717 -0.0079,-0.142789 -0.03675,-0.04028 -0.07144,-0.08297 -0.02824,-0.03475 -0.04956,-0.0747 -0.07679,-0.110263 -0.05721,-0.07472 -0.122749,-0.148397 -0.203081,-0.198864 -0.219823,-0.138092 -0.596885,-0.176619 -0.8503,-0.209832 -0.0709,-0.0093 -0.290975,-0.02671 -0.351033,0.01658 -0.01801,0.01301 -0.01819,0.04051 -0.02728,0.06076"
           id="path60" /><path
           style="fill:none;stroke:#000000;stroke-width:0.46458px;stroke-linecap:butt;stroke-linejoin:miter;stroke-opacity:1"
           d="m 27.67875,99.841973 c -0.278137,0.02453 -0.453025,0.231797 -0.696722,0.325717 -0.215542,0.0831 -0.0169,-0.0108 -0.219395,0.0554 -0.05163,0.0169 -0.116786,0.0624 -0.175517,0.0661 -0.09949,0.006 -0.185116,-0.0482 -0.274245,-0.0827"
           id="path61" /><path
           style="fill:none;stroke:#000000;stroke-width:0.46458px;stroke-linecap:butt;stroke-linejoin:miter;stroke-opacity:1"
           d="m 21.737343,85.676877 c 0.04604,0.141507 0.534471,0.33801 0.669439,0.50236 0.07763,0.09453 0.08508,0.232466 0.126012,0.342316 0.03851,0.103365 0.04403,0.10008 0.08776,0.16567"
           id="path62" /><path
           style="fill:none;stroke:#000000;stroke-width:0.46458px;stroke-linecap:butt;stroke-linejoin:miter;stroke-opacity:1"
           d="m 25.078348,84.936838 c 0.10426,0.03122 0.212642,0.05103 0.312779,0.09366 0.01396,0.0059 0.005,0.0302 0.01097,0.04418 0.0161,0.03786 0.03841,0.07284 0.05485,0.110542 0.01462,0.03861 0.02925,0.07725 0.04388,0.115885 0.01097,0.01106 0.02558,0.01942 0.03291,0.03317 0.02056,0.03861 0.02819,0.08332 0.0495,0.121511 0.01204,0.02156 0.03641,0.03429 0.04922,0.05541 0.01016,0.01673 0.09963,0.19334 0.109698,0.237401 0.02445,0.107002 0.02527,0.248792 0.02194,0.358906 -6.97e-4,0.023 -0.02244,0.165382 0.01659,0.193238 0.03737,0.02667 0.08045,0.04427 0.120668,0.06638"
           id="path63" /></g><path
         style="fill:none;stroke:#000000;stroke-width:0.46458px;stroke-linecap:butt;stroke-linejoin:miter;stroke-opacity:1"
         d="M 25.927555,82.98852 C 24.828338,81.672202 24.982906,81.81985 23.676444,80.440698 22.763693,79.477159 23.106618,80.00488 22.747828,79.40383"
         id="path65" /><path
         style="fill:none;stroke:#000000;stroke-width:0.46458px;stroke-linecap:butt;stroke-linejoin:miter;stroke-opacity:1"
         d="m 23.205614,86.099775 c -1.233807,-0.217591 -2.467613,-0.435181 -3.70142,-0.652772"
         id="path66" /><path
         style="fill:none;stroke:#000000;stroke-width:0.46458px;stroke-linecap:butt;stroke-linejoin:miter;stroke-opacity:1"
         d="m 24.630492,97.136217 c -1.500958,0.123903 -3.001916,0.247807 -4.502874,0.37171"
         id="path67" /><path
         style="fill:none;stroke:#000000;stroke-width:0.46458px;stroke-linecap:butt;stroke-linejoin:miter;stroke-opacity:1"
         d="m 52.917409,86.560824 c 1.237938,-0.985787 2.475872,-1.97157 3.713811,-2.957358"
         id="path68" /><path
         style="fill:none;stroke:#000000;stroke-width:0.46458px;stroke-linecap:butt;stroke-linejoin:miter;stroke-opacity:1"
         d="m 54.303813,94.178863 c 2.788976,1.319078 1.486716,0.928324 3.82793,1.408574"
         id="path69" /><path
         style="fill:none;stroke:#000000;stroke-width:0.46458px;stroke-linecap:butt;stroke-linejoin:miter;stroke-opacity:1"
         d="m 53.120872,101.9508 c 3.896214,2.67647 2.347304,1.56206 4.693289,3.27755"
         id="path70" /><path
         style="fill:none;stroke:#000000;stroke-width:0.46458px;stroke-linecap:butt;stroke-linejoin:miter;stroke-opacity:1"
         d="m 48.948618,110.324 c 0.779245,1.56866 0.339478,0.93118 1.208377,1.98439"
         id="path71" /><text
         xml:space="preserve"
         transform="matrix(0.46458,0,0,0.46458,50.212121,77.83169)"
         id="text99"
         style="font-style:normal;font-weight:normal;font-size:26.6667px;line-height:1.25;font-family:sans-serif;white-space:pre;shape-inside:url(#rect100);display:inline;fill:#000000;fill-opacity:1;stroke:none"
         x="251.30698"
         y="0"><tspan
           x="43.279907"
           y="48.403994"
           id="tspan21"><tspan
             style="text-align:end;text-anchor:end"
             id="tspan20">Critical Thinking</tspan></tspan></text></g><g
       id="g112"
       transform="translate(0,-13.00824)"><g
         id="g105"
         transform="translate(54.881682,-4.3048302)"><path
           style="fill:none;stroke:#000000;stroke-width:0.46458px;stroke-linecap:butt;stroke-linejoin:miter;stroke-opacity:1"
           d="m 3.7902083,138.12626 4.8119774,-3.89705 5.7986323,7.75825 -4.9926147,3.9577"
           id="path72" /><path
           style="fill:none;stroke:#000000;stroke-width:0.46458px;stroke-linecap:butt;stroke-linejoin:miter;stroke-opacity:1"
           d="m 9.4968913,135.18782 4.8869717,-3.49339 c 0,0 9.411096,0.51597 12.878023,0.73298 1.162515,0.0728 1.081656,3.52047 -0.08282,3.49339 -2.698721,-0.0628 -8.67056,-0.58691 -8.67056,-0.58691"
           id="path73"
           sodipodi:nodetypes="ccssc" /><path
           style="fill:none;stroke:#000000;stroke-width:0.46458px;stroke-linecap:butt;stroke-linejoin:miter;stroke-opacity:1"
           d="m 13.40699,140.32325 15.868163,-1.01723 c 0,0 4.735371,-6.02681 9.299033,-12.13132 1.011758,-1.35337 -1.236871,-3.09605 -2.391179,-1.86203 -2.231634,2.38575 -6.861732,7.20668 -6.861732,7.20668"
           id="path74"
           sodipodi:nodetypes="ccssc" /><path
           style="fill:none;stroke:#000000;stroke-width:0.348381px;stroke-linecap:butt;stroke-linejoin:miter;stroke-opacity:1;marker-end:url(#ArrowWideHeavy)"
           d="m 27.168846,121.67018 c 0.08498,-9.3031 -13.756589,-9.2187 -13.65599,-0.54912"
           id="path75"
           sodipodi:nodetypes="cc" /><path
           style="fill:none;stroke:#000000;stroke-width:0.348381px;stroke-linecap:butt;stroke-linejoin:miter;stroke-opacity:1;marker-end:url(#ArrowWideHeavy)"
           d="m 13.724901,123.1629 c -0.08498,9.3031 13.756591,9.2187 13.655994,0.54912"
           id="path77"
           sodipodi:nodetypes="cc" /><path
           style="fill:none;stroke:#000000;stroke-width:0.46458px;stroke-linecap:butt;stroke-linejoin:miter;stroke-opacity:1"
           d="m 16.330752,127.64794 2.429994,-3.51894 c 0,0 1.246229,1.81921 2.213031,1.77013 0.966801,-0.0491 2.122688,-2.08356 2.122688,-2.08356 l 2.597447,3.85954"
           id="path78"
           sodipodi:nodetypes="cczcc" /><rect
           style="fill:#ffffff;fill-opacity:1;stroke:#000000;stroke-width:1.39374"
           id="rect78"
           width="5.0812206"
           height="5.2412758"
           x="18.262794"
           y="117.535"
           ry="2.2937293" /></g><text
         xml:space="preserve"
         transform="matrix(0.46458,0,0,0.46458,45.010399,100.762)"
         id="text100"
         style="font-style:normal;font-weight:normal;font-size:26.6667px;line-height:1.25;font-family:sans-serif;white-space:pre;shape-inside:url(#rect101);display:inline;fill:#000000;fill-opacity:1;stroke:none"
         x="251.30698"
         y="0"><tspan
           x="112.1866"
           y="48.403994"
           id="tspan23"><tspan
             style="text-align:end;text-anchor:end"
             id="tspan22">Equity and </tspan></tspan><tspan
           x="130.82666"
           y="81.737368"
           id="tspan25"><tspan
             style="text-align:end;text-anchor:end"
             id="tspan24">Inclusion</tspan></tspan></text></g><g
       id="g113"
       transform="translate(0,93.84516)"><g
         id="g107"
         transform="translate(5.7320106,5.3990154)"><path
           style="fill:none;stroke:#000000;stroke-width:0.46458;stroke-linecap:butt;stroke-linejoin:miter;stroke-dasharray:none;stroke-opacity:1"
           d="m 51.080728,167.03628 10.403219,-14.88842 3.754079,3.91592"
           id="path79"
           sodipodi:nodetypes="ccc" /><g
           id="g106"><path
             style="fill:none;stroke:#000000;stroke-width:0.46458;stroke-linecap:butt;stroke-linejoin:miter;stroke-dasharray:none;stroke-opacity:1"
             d="m 63.27101,159.57113 8.388106,-14.13975 13.882275,21.6049 H 51.308214"
             id="path80"
             sodipodi:nodetypes="cccc" /><path
             style="fill:none;stroke:#000000;stroke-width:0.46458;stroke-linecap:butt;stroke-linejoin:miter;stroke-dasharray:none;stroke-opacity:1"
             d="m 71.859437,145.30235 -0.212,0.13754 -0.0031,-6.41558 c 0,0 -1.330087,0.61621 -2.394336,0.67388 -0.786878,0.0426 -3.242511,-0.65182 -3.242511,-0.65182 l 0.967085,1.0093 -0.777571,0.20835 c 0,0 2.352836,1.15467 3.239425,1.10873 0.994317,-0.0515 2.271524,-0.53778 2.271524,-0.53778"
             id="path81"
             sodipodi:nodetypes="cccscccsc" /></g></g><text
         xml:space="preserve"
         transform="matrix(0.46458,0,0,0.46458,45.083985,140.3045)"
         id="text101"
         style="font-style:normal;font-weight:normal;font-size:26.6667px;line-height:1.25;font-family:sans-serif;white-space:pre;shape-inside:url(#rect102);display:inline;fill:#000000;fill-opacity:1;stroke:none"
         x="251.30698"
         y="0"><tspan
           x="105.8133"
           y="48.403994"
           id="tspan27"><tspan
             style="text-align:end;text-anchor:end"
             id="tspan26">Leadership</tspan></tspan></text></g><g
       id="g114"
       transform="translate(0,-143.09064)"><g
         id="g108"
         transform="translate(7.9756525,0.92184927)"><rect
           style="fill:#ffffff;fill-opacity:1;stroke:#000000;stroke-width:0.46458;stroke-dasharray:none"
           id="rect84"
           width="8.022377"
           height="2.6650085"
           x="40.111759"
           y="177.7762"
           ry="1.3325043" /><rect
           style="fill:#ffffff;fill-opacity:1;stroke:#000000;stroke-width:0.46458;stroke-dasharray:none"
           id="rect81"
           width="27.734066"
           height="21.388166"
           x="30.26446"
           y="179.44624"
           ry="2.2937293" /><rect
           style="fill:#ffffff;fill-opacity:1;stroke:#000000;stroke-width:0.46458;stroke-dasharray:none"
           id="rect82"
           width="27.734066"
           height="14.633315"
           x="30.26446"
           y="179.44624"
           ry="2.2937293" /><rect
           style="fill:#ffffff;fill-opacity:1;stroke:#000000;stroke-width:0.46458;stroke-dasharray:none"
           id="rect83"
           width="5.0509176"
           height="2.6650109"
           x="41.606033"
           y="192.64265"
           ry="0.92714083" /></g><text
         xml:space="preserve"
         transform="matrix(0.46458,0,0,0.46458,49.440454,172.30278)"
         id="text102"
         style="font-style:normal;font-weight:normal;font-size:26.6667px;line-height:1.25;font-family:sans-serif;white-space:pre;shape-inside:url(#rect103);display:inline;fill:#000000;fill-opacity:1;stroke:none"
         x="251.30698"
         y="0"><tspan
           x="46.346622"
           y="48.403994"
           id="tspan29"><tspan
             style="text-align:end;text-anchor:end"
             id="tspan28">Professionalism</tspan></tspan></text></g><g
       id="g115"
       transform="translate(0,-68.75784)"><path
         style="fill:#ffffff;fill-opacity:1;stroke:#000000;stroke-width:0.46458px;stroke-linecap:butt;stroke-linejoin:miter;stroke-opacity:1"
         d="m 64.786801,213.02016 14.576183,1.41465 -1.765097,2.32398 h -4.66338 l 7.639461,8.19615 -0.601088,1.87298 -4.549989,-4.34339 4.552191,4.19 -1.463455,1.84877 -5.381165,-4.18743 5.508869,4.11697 -1.945642,1.59923 -4.726135,-3.32726 4.873286,3.45386 -1.940509,1.28805 -12.823198,-8.19725"
         id="path90" /><path
         style="fill:#ffffff;fill-opacity:1;stroke:#000000;stroke-width:0.46458px;stroke-linecap:butt;stroke-linejoin:miter;stroke-opacity:1"
         d="m 74.456304,217.86409 c -2.781847,0.35612 -6.731294,2.59138 -7.254881,-0.68696 l 12.159726,-4.26999 3.207255,9.83773 -2.544033,1.60763 z"
         id="path91"
         sodipodi:nodetypes="ccc" /><path
         style="fill:#ffffff;fill-opacity:1;stroke:#000000;stroke-width:0.46458px;stroke-linecap:butt;stroke-linejoin:miter;stroke-opacity:1"
         d="m 65.994109,222.71352 -2.161416,3.56909 2.101602,0.83338 1.743815,-3.74817 z"
         id="path93"
         sodipodi:nodetypes="ccccc" /><rect
         style="fill:#ffffff;fill-opacity:1;stroke:#000000;stroke-width:0.46458;stroke-dasharray:none"
         id="rect90"
         width="4.7058668"
         height="12.845477"
         x="115.83522"
         y="186.04993"
         ry="0"
         transform="rotate(15.841207)" /><rect
         style="fill:#ffffff;fill-opacity:1;stroke:#000000;stroke-width:0.46458;stroke-dasharray:none"
         id="rect89"
         width="5.2824502"
         height="13.939136"
         x="56.382538"
         y="210.2916"
         ry="0" /><path
         style="fill:#ffffff;fill-opacity:1;stroke:#000000;stroke-width:0.46458px;stroke-linecap:butt;stroke-linejoin:miter;stroke-opacity:1"
         d="m 67.687285,223.53515 2.034447,0.87118 -2.066373,3.93422 -1.821246,-0.99117"
         id="path94"
         sodipodi:nodetypes="cccc" /><path
         style="fill:#ffffff;fill-opacity:1;stroke:#000000;stroke-width:0.46458px;stroke-linecap:butt;stroke-linejoin:miter;stroke-opacity:1"
         d="m 69.925245,224.44334 1.552781,1.76808 -1.805465,3.64653 -1.952444,-1.34133"
         id="path95"
         sodipodi:nodetypes="cccc" /><path
         style="fill:#ffffff;fill-opacity:1;stroke:#000000;stroke-width:0.46458px;stroke-linecap:butt;stroke-linejoin:miter;stroke-opacity:1"
         d="m 71.815789,226.26495 1.375227,1.73102 -1.547121,2.34307 -1.967026,-0.20912"
         id="path96"
         sodipodi:nodetypes="cccc" /><rect
         style="fill:#ffffff;fill-opacity:1;stroke:#000000;stroke-width:0.46458;stroke-dasharray:none"
         id="rect96"
         width="4.7058668"
         height="12.845477"
         x="-22.597292"
         y="225.3631"
         ry="0"
         transform="matrix(-0.96202191,0.27297225,0.27297225,0.96202191,0,0)" /><rect
         style="fill:#ffffff;fill-opacity:1;stroke:#000000;stroke-width:0.46458;stroke-dasharray:none"
         id="rect97"
         width="5.2824502"
         height="13.939136"
         x="-87.256798"
         y="210.45175"
         ry="0"
         transform="scale(-1,1)" /><text
         xml:space="preserve"
         transform="matrix(0.46458,0,0,0.46458,43.111801,199.88001)"
         id="text103"
         style="font-style:normal;font-weight:normal;font-size:26.6667px;line-height:1.25;font-family:sans-serif;white-space:pre;shape-inside:url(#rect104);display:inline;fill:#000000;fill-opacity:1;stroke:none"
         x="251.30698"
         y="0"><tspan
           x="114.5333"
           y="48.403994"
           id="tspan31"><tspan
             style="text-align:end;text-anchor:end"
             id="tspan30">Teamwork</tspan></tspan></text></g><g
       id="g116"
       transform="translate(0,-68.75784)"><rect
         style="fill:#ffffff;fill-opacity:1;stroke:#000000;stroke-width:0.46458;stroke-dasharray:none"
         id="rect85"
         width="28.842697"
         height="2.7121775"
         x="50.43507"
         y="257.82745"
         ry="1.3560888" /><rect
         style="fill:#ffffff;fill-opacity:1;stroke:#000000;stroke-width:0.46458;stroke-dasharray:none"
         id="rect86"
         width="28.842701"
         height="18.710247"
         x="50.43507"
         y="239.0419"
         ry="1.3560888" /><rect
         style="fill:#ffffff;fill-opacity:1;stroke:#000000;stroke-width:0.46458;stroke-dasharray:none"
         id="rect87"
         width="25.97768"
         height="16.624601"
         x="52.037979"
         y="240.08171"
         ry="1.3560888" /><rect
         style="fill:#ffffff;fill-opacity:1;stroke:#000000;stroke-width:0.46458;stroke-dasharray:none"
         id="rect88"
         width="14.138807"
         height="0.81821996"
         x="58.237808"
         y="258.83768"
         ry="0.40910998" /><text
         xml:space="preserve"
         transform="matrix(0.46458,0,0,0.46458,45.0945,230.82311)"
         id="text104"
         style="font-style:normal;font-weight:normal;font-size:26.6667px;line-height:1.25;font-family:sans-serif;white-space:pre;shape-inside:url(#rect105);display:inline;fill:#000000;fill-opacity:1;stroke:none"
         x="251.30698"
         y="0"><tspan
           x="101.86666"
           y="48.403994"
           id="tspan33"><tspan
             style="text-align:end;text-anchor:end"
             id="tspan32">Technology</tspan></tspan></text></g></g></svg>
